<?xml version="1.0" standalone="no"?>
<!DOCTYPE svg PUBLIC "-//W3C//DTD SVG 20010904//EN"
 "http://www.w3.org/TR/2001/REC-SVG-20010904/DTD/svg10.dtd">
<svg version="1.0" xmlns="http://www.w3.org/2000/svg"
 width="5001.000000pt" height="5001.000000pt" viewBox="0 0 5001.000000 5001.000000"
 preserveAspectRatio="xMidYMid meet">

<g transform="translate(0.000000,5001.000000) scale(0.100000,-0.100000)"
fill="#000000" stroke="none">
<path d="M26095 29994 c-689 -13 -1543 -45 -1805 -69 -1398 -127 -2613 -920
-3195 -2085 -150 -300 -244 -587 -307 -937 -33 -188 -31 -419 5 -556 126 -474
506 -816 1042 -939 l100 -23 4715 -3 c3445 -2 4745 0 4828 8 348 35 651 177
880 414 165 171 263 349 320 579 28 118 23 383 -12 562 -139 716 -455 1306
-981 1830 -298 297 -645 543 -1040 735 -545 265 -1063 395 -1715 430 -285 15
-632 29 -900 36 -129 3 -264 7 -300 8 -126 5 -1467 13 -1635 10z m3443 -349
c191 -33 475 -123 702 -222 563 -245 1076 -693 1477 -1293 203 -303 393 -709
393 -839 0 -81 -21 -61 -292 290 -459 594 -969 1070 -1581 1473 -95 62 -305
192 -467 288 -329 196 -420 258 -420 287 0 11 6 22 13 24 23 10 93 7 175 -8z
m-5008 -921 c380 -67 720 -324 899 -682 135 -268 160 -623 65 -924 -94 -297
-304 -555 -582 -712 -169 -95 -346 -144 -558 -153 -282 -12 -542 64 -774 228
-159 112 -332 319 -409 491 -156 348 -149 749 18 1082 250 498 787 766 1341
670z m4690 0 c509 -89 917 -503 1005 -1018 19 -113 19 -309 0 -419 -144 -827
-1044 -1281 -1792 -903 -167 84 -307 198 -418 341 -183 237 -265 474 -265 770
0 267 66 485 213 705 64 96 231 263 327 327 281 188 597 255 930 197z"/>
<path d="M24124 28530 c-427 -77 -775 -424 -849 -845 -80 -459 145 -914 555
-1120 622 -313 1361 44 1500 724 96 474 -142 948 -581 1155 -146 69 -227 87
-414 91 -88 2 -183 0 -211 -5z m535 -380 c205 -39 350 -243 313 -440 -44 -241
-271 -382 -499 -311 -370 115 -358 644 17 745 67 18 101 19 169 6z m-911
-1176 c29 -33 28 -69 -3 -99 -67 -68 -174 15 -119 93 33 47 82 49 122 6z m465
-138 c120 -51 124 -221 6 -281 -42 -22 -110 -19 -150 8 -47 31 -82 104 -73
151 19 105 122 163 217 122z"/>
<path d="M28835 28533 c-168 -26 -362 -113 -495 -220 -179 -144 -298 -329
-362 -561 -18 -65 -22 -104 -22 -257 0 -153 4 -192 22 -258 65 -237 215 -455
405 -591 88 -63 254 -140 357 -165 235 -59 505 -29 720 79 279 142 466 375
552 688 32 114 32 371 0 495 -78 310 -288 567 -574 702 -142 67 -234 87 -413
90 -88 2 -173 1 -190 -2z m513 -383 c123 -23 221 -99 279 -217 34 -69 37 -82
37 -162 0 -116 -26 -181 -105 -265 -85 -92 -153 -121 -279 -121 -74 1 -107 6
-150 23 -81 32 -162 108 -202 190 -31 62 -33 74 -33 167 0 91 3 106 32 167 51
107 139 181 253 212 66 18 101 19 168 6z m-910 -1177 c45 -49 6 -123 -63 -123
-60 0 -94 68 -59 118 33 47 82 49 122 5z m490 -150 c15 -10 38 -41 51 -67 22
-45 23 -52 12 -95 -42 -159 -251 -164 -301 -7 -21 67 18 152 84 182 41 19 120
12 154 -13z"/>
</g>
</svg>
